<?xml version="1.0" encoding="UTF-8"?>
<svg id="uuid-65d5a243-faa3-4e36-ad02-32e0df4d19b9" data-name="Layer 1" xmlns="http://www.w3.org/2000/svg" viewBox="0 0 476.1 79.5">
  <path d="M21.6,63.4c-2.7,0-5.3-.4-7.9-1.1-2.6-.8-4.9-2-7-3.7-2.1-1.7-3.7-4-4.9-6.9-1.2-2.9-1.8-6.5-1.8-10.8s.6-8.1,1.8-11.1c1.2-3,2.8-5.4,4.8-7.1,2-1.8,4.4-3.1,7-3.8,2.6-.8,5.3-1.1,8-1.1s4.7,.2,7,.7c2.3,.4,4.5,1.1,6.5,2v8.2c-2-.9-4-1.6-6-2.1-2-.5-4.1-.7-6.2-.7-4.6,0-8,1.1-10.3,3.4-2.3,2.3-3.5,6-3.5,11s1.1,9.1,3.3,11.5c2.2,2.4,5.8,3.6,10.7,3.6s4.3-.3,6.3-.8c2-.6,3.9-1.2,5.7-2.1v8.2c-2,.9-4.2,1.6-6.4,2.1-2.2,.5-4.6,.7-7.1,.7Z" style="fill: #0369a1;"/>
  <path d="M54.8,62.5h-9.1V1.9h9.1V62.5Z" style="fill: #0369a1;"/>
  <path d="M83.7,63.9c-2.3,0-4.5-.2-6.6-.7s-4-1.2-5.7-2.2c-1.7-1.1-3.1-2.5-4.1-4.3-1-1.8-1.5-4.1-1.5-6.9s.6-6,1.9-8.1c1.3-2.1,3.1-3.7,5.5-4.7,2.4-1.1,5.3-1.6,8.6-1.6s4.2,.2,6,.5c1.8,.4,3.4,.8,4.8,1.4,1.4,.6,2.6,1.3,3.6,2.1l1,6c-1.3-.9-3-1.6-5.2-2.2-2.2-.6-4.5-.9-7-.9s-5.9,.6-7.6,1.8c-1.7,1.2-2.6,2.9-2.6,5.3s.5,3.2,1.5,4.2c1,1.1,2.2,1.9,3.7,2.4,1.5,.5,3.1,.7,4.7,.7,3.4,0,6-.2,7.6-.7,1.6-.5,2.5-1.5,2.5-3.2v-18.4c0-3.1-.9-5.4-2.8-6.8-1.9-1.4-4.5-2.1-8-2.1s-5,.4-7.6,1.2c-2.6,.8-4.8,1.9-6.5,3.3v-8.6c1.6-1.1,4-2,7.1-2.7,3.1-.7,6.4-1,9.7-1s3.3,.2,4.9,.5c1.7,.3,3.2,.8,4.7,1.5,1.5,.7,2.8,1.6,3.9,2.7s2,2.5,2.7,4.2c.6,1.6,1,3.6,1,5.8v21c0,2.9-.9,5.1-2.7,6.6-1.8,1.5-4.2,2.6-7.2,3.2-3,.6-6.5,.8-10.3,.8Z" style="fill: #0369a1;"/>
  <path d="M129.6,63.9c-3.2,0-5.8-.3-8-1-2.2-.7-4.3-1.5-6.4-2.5v-8.7c1.5,.9,3,1.8,4.5,2.5,1.5,.7,3,1.3,4.6,1.7,1.6,.4,3.4,.6,5.4,.6s4.5-.5,5.9-1.6c1.4-1.1,2.1-2.4,2.1-3.9s-.5-2.4-1.4-3.2c-.9-.8-2.1-1.4-3.5-1.9-1.4-.5-2.9-1.1-4.4-1.6-1.6-.4-3.2-.9-4.7-1.4-1.6-.6-3-1.3-4.3-2.3s-2.4-2.2-3.2-3.7c-.8-1.5-1.2-3.4-1.2-5.6s.5-4.5,1.5-6.3c1-1.7,2.3-3.1,3.9-4.2,1.6-1.1,3.4-1.9,5.3-2.4,2-.5,3.9-.7,5.7-.7,3.1,0,5.6,.4,7.6,1.1,2,.7,3.9,1.5,5.7,2.5v7.9c-2-1.1-4-2.1-5.9-2.9-1.9-.8-4-1.2-6.5-1.2s-4.2,.4-5.7,1.3c-1.5,.8-2.3,2.1-2.3,3.7s.4,2.5,1.3,3.3c.8,.8,2,1.5,3.3,1.9,1.4,.5,2.8,.9,4.4,1.4,1.5,.5,3,1,4.6,1.4,1.6,.5,3,1.2,4.4,2.1,1.3,.9,2.4,2.2,3.3,3.7,.8,1.5,1.3,3.5,1.3,6,0,3.3-.9,5.9-2.6,8-1.7,2-3.8,3.5-6.5,4.5-2.7,.9-5.5,1.4-8.3,1.4Z" style="fill: #0369a1;"/>
  <path d="M157.9,62.5V0h9.2V25.1l-2.7-2.3c2.3-1.6,4.8-2.8,7.6-3.8,2.8-1,5.5-1.4,8.1-1.4s6.4,.6,8.8,1.8c2.5,1.2,4.4,3.1,5.7,5.7,1.4,2.6,2.1,6,2.1,10.2v27.2h-9.2v-26.1c0-3.6-.8-6.3-2.5-8.1-1.7-1.9-4.2-2.8-7.5-2.8s-3.5,.3-5.3,.8c-1.8,.5-3.5,1.2-5,2.1V62.5h-9.2Z" style="fill: #0369a1;"/>
  <path d="M209.6,11.6V3.2h9.8V11.6h-9.8Zm.3,51V18.8h9.2V62.5c0,0-9.2,0-9.2,0Z" style="fill: #0369a1;"/>
  <path d="M236.1,62.5V26.2h-7v-7.6h7.1v-1.8c0-3.1,.3-5.7,1-7.7,.7-2,1.6-3.7,2.7-4.9,1.1-1.2,2.3-2.1,3.7-2.8,1.3-.6,2.7-1,4.1-1.2,1.4-.2,2.7-.3,3.9-.3s1.8,0,2.6,.2c.9,.1,1.6,.3,2.3,.4V8.8c-.5-.3-1.1-.5-1.6-.7-.6-.2-1.3-.3-2.1-.3s-1.8,0-2.6,.2c-.9,.1-1.7,.5-2.4,1.1-.7,.6-1.3,1.4-1.7,2.5-.4,1.1-.6,2.6-.6,4.6v2.5h11v7.6h-11.1V62.5h-9.2Z" style="fill: #0369a1;"/>
  <path d="M272.8,79.5c-1.1,0-2.2-.1-3.2-.3-1-.2-1.9-.5-2.6-.7v-7.9c.7,.2,1.4,.4,2.1,.6s1.5,.3,2.3,.3c1.8,0,3.2-.5,4.4-1.4,1.2-.9,2.2-2.3,3-4,.8-1.8,1.5-3.9,2-6.3l.2,4.6-18.7-45.7h10.4l12.7,34.7h-1.3l12.5-34.7h9.5l-18.1,46.7c-1.5,3.7-3,6.6-4.7,8.7-1.7,2.1-3.4,3.5-5.2,4.3-1.8,.8-3.5,1.2-5.2,1.2Z" style="fill: #0369a1;"/>
  <path d="M309.7,62.5l21.5-58.4h19.4l19.6,58.4h-18l-18-56.2,9.3-.8-17.8,57h-16.2Zm13.4-10.2l3-12.3h25.7l1.7,12.3h-30.3Z" style="fill: #0369a1;"/>
  <path d="M403.2,63.9c-.7,0-1.9,0-3.6-.1-1.7,0-3.5-.5-5.5-1.1-1.9-.6-3.6-1.8-4.9-3.4l2.8-4.9v22.7h-15.6V27.9c0-1.9,.6-3.6,1.7-5.1,1.1-1.5,2.7-2.7,4.6-3.7,2-1,4.3-1.7,7.1-2.2,2.7-.5,5.8-.7,9.1-.7,4.8,0,9,.7,12.5,2.2,3.5,1.5,6.2,4,8.1,7.5,1.9,3.5,2.8,8.3,2.8,14.5s-.8,8.7-2.3,12.2c-1.5,3.5-3.7,6.3-6.6,8.3-2.8,2-6.2,3-10.2,3Zm-5.5-12.4c1.9,0,3.5-.3,4.9-.9s2.3-1.8,3-3.4c.7-1.7,1-4.1,1-7.3s-.3-4.4-.8-6c-.6-1.5-1.4-2.6-2.6-3.4-1.2-.7-2.8-1.1-4.9-1.1s-4.4,.2-5.1,.7c-.7,.5-1.1,1.1-1.1,1.8v18.2c.8,.4,1.8,.7,2.9,1,1.1,.2,2,.4,2.8,.4Z" style="fill: #0369a1;"/>
  <path d="M457,63.9c-.7,0-1.9,0-3.6-.1-1.7,0-3.5-.5-5.5-1.1-1.9-.6-3.6-1.8-4.9-3.4l2.8-4.9v22.7h-15.6V27.9c0-1.9,.6-3.6,1.7-5.1,1.1-1.5,2.7-2.7,4.6-3.7,2-1,4.3-1.7,7.1-2.2,2.7-.5,5.8-.7,9.1-.7,4.8,0,9,.7,12.5,2.2,3.5,1.5,6.2,4,8.1,7.5,1.9,3.5,2.8,8.3,2.8,14.5s-.8,8.7-2.3,12.2c-1.5,3.5-3.7,6.3-6.6,8.3-2.8,2-6.2,3-10.2,3Zm-5.5-12.4c1.9,0,3.5-.3,4.9-.9s2.3-1.8,3-3.4c.7-1.7,1-4.1,1-7.3s-.3-4.4-.8-6c-.6-1.5-1.4-2.6-2.6-3.4-1.2-.7-2.8-1.1-4.9-1.1s-4.4,.2-5.1,.7c-.7,.5-1.1,1.1-1.1,1.8v18.2c.8,.4,1.8,.7,2.9,1,1.1,.2,2,.4,2.8,.4Z" style="fill: #0369a1;"/>
</svg>