<?xml version="1.0" encoding="UTF-8"?>
<svg id="Layer_1" data-name="Layer 1" xmlns="http://www.w3.org/2000/svg" viewBox="0 0 476 84.5">
  <path d="M35.7,20.1c-3.4-1.9-7.7-2.9-13-2.9s-13,2-16.8,6C1.9,27.2,0,33.5,0,42.1s1.9,14.3,5.6,18.7c3.8,4.4,9.5,6.5,17.2,6.5s13-2.2,16.9-6.6c4-4.4,5.9-10.6,5.9-18.6s-.8-9.8-2.5-13.6c-1.6-3.7-4.2-6.6-7.6-8.5Zm-1.1,30.8c-.9,2.5-2.2,4.5-4.1,5.9-1.9,1.4-4.5,2.1-7.7,2.1-4.7,0-8-1.5-10-4.5-2-3-2.9-7.1-2.9-12.3s.4-6.5,1.2-8.9c.8-2.5,2.2-4.4,4.1-5.7,1.9-1.3,4.4-2,7.6-2s5.7,.6,7.6,1.9c1.9,1.2,3.3,3.1,4.2,5.6,.9,2.5,1.3,5.5,1.3,9.2s-.4,6.2-1.3,8.7Z" style="fill: #0369a1;"/>
  <path d="M89.5,46.8c0,4-.9,7-2.7,9-1.8,1.9-4.6,2.9-8.4,2.9s-6.6-1-8.4-2.9c-1.8-1.9-2.7-4.9-2.7-9V18.3h-10v29.9c0,4.2,.9,7.8,2.6,10.6,1.7,2.8,4.1,5,7.3,6.4,3.1,1.4,6.9,2.1,11.2,2.1,6.5,0,11.6-1.6,15.2-4.8,3.6-3.2,5.5-8,5.5-14.3V18.3h-9.6v28.5Z" style="fill: #0369a1;"/>
  <path d="M134.7,17.3c-3.1,0-6.2,.3-9.2,1-3,.7-5.7,1.4-7.9,2.3-2.2,.9-3.7,1.6-4.6,2.1v43.3h10V27c1.3-.2,2.7-.4,4.2-.6,1.5-.2,3.1-.3,4.6-.4,1.6,0,3.2,0,4.7,0,1.6,0,3.1,.2,4.6,.4v-8c-.7-.3-1.6-.6-2.6-.9-1-.3-2.3-.4-3.9-.4Z" style="fill: #0369a1;"/>
  <polygon points="167.6 2.7 150.4 2.7 150.4 65.9 194 65.9 194 52.8 167.6 52.8 167.6 2.7" style="fill: #0369a1;"/>
  <rect x="203.1" width="16.1" height="11.7" style="fill: #0369a1;"/>
  <polygon points="203.3 18.6 203.3 65.9 219.2 65.9 219.1 18.6 203.3 18.6" style="fill: #0369a1;"/>
  <path d="M258,16.3c-1.1,0-2.6,.2-4.5,.5-1.8,.3-3.6,.9-5.4,1.7-.5,.3-1,.5-1.5,.9V.5h-15.4V54.2c0,2.8,.6,5,1.9,6.7,1.3,1.7,3.1,3,5.3,3.9,2.2,.9,4.7,1.6,7.4,1.9,2.7,.4,5.4,.6,8.1,.6,3.9,0,7.5-.5,10.6-1.4,3.2-.9,5.9-2.4,8.2-4.4,2.3-2,4-4.6,5.2-7.9,1.2-3.3,1.8-7.3,1.8-12,0-8.4-1.9-14.8-5.6-19-3.7-4.3-9.1-6.4-16.1-6.4Zm5.1,32.7c-.7,1.7-1.8,3.1-3.4,4-1.6,.9-3.5,1.4-5.9,1.4s-2.7-.1-3.8-.4c-1.1-.3-1.9-.7-2.5-1.4-.6-.7-.9-1.5-.9-2.5V30.4c1.1-.6,2.3-1,3.6-1.3,1.3-.3,2.5-.4,3.6-.4,2,0,3.7,.4,5.3,1.3,1.5,.9,2.8,2.3,3.7,4.3,.9,2,1.4,4.9,1.4,8.5s-.3,4.5-1,6.2Z" style="fill: #0369a1;"/>
  <path d="M310.2,16.3c-2.8,0-5.7,.4-8.7,1.2-2.9,.8-5.6,1.7-7.8,2.8-2.3,1-3.9,2-4.8,2.9v42.8h15.7V29.5c1-.1,2.3-.2,3.9-.3,1.6,0,3.3,0,5.2,0,1.8,0,3.6,.2,5.2,.4,1.6,.2,3,.4,4,.7v-11.3c-1-.8-2.5-1.4-4.5-1.9-2-.5-4.7-.8-8.2-.8Z" style="fill: #0369a1;"/>
  <path d="M367.6,20.8c-1.7-1.3-3.5-2.2-5.4-2.8-1.9-.6-3.8-1.1-5.7-1.3-1.9-.2-3.5-.3-4.8-.3-4.6,0-8.6,.4-12.1,1.3-3.5,.9-6,1.8-7.5,2.8v13.8c1.6-1.3,3.9-2.5,6.7-3.6,2.8-1.1,5.7-1.6,8.5-1.6s5.8,.6,7.6,1.9c1.8,1.2,2.7,3.2,2.7,6v2.4c-.4-.2-.7-.4-1.1-.6-1.6-.8-3.5-1.4-5.5-1.9-2-.5-4.1-.7-6.2-.7-3.9,0-7.1,.6-9.7,1.9-2.5,1.3-4.4,3-5.6,5.1-1.2,2.2-1.8,4.6-1.8,7.5s.5,5.9,1.6,8.1c1.1,2.2,2.6,4,4.6,5.2,2,1.3,4.3,2.2,6.9,2.7,2.6,.5,5.5,.8,8.6,.8,5.1,0,9.4-.4,12.9-1.2,3.5-.8,6.1-2,7.9-3.7,1.8-1.7,2.7-3.9,2.7-6.5v-22.6c0-3.1-.4-5.7-1.4-7.7-1-2-2.4-3.7-4-4.9Zm-9.9,32.8c0,1.2-.6,2-1.7,2.4-1.1,.4-3.2,.6-6.2,.6s-2.2-.3-3.2-.8c-1-.5-1.8-1.2-2.4-2-.6-.8-.9-1.7-.9-2.7,0-1.8,.6-3.1,1.9-3.9,1.3-.8,3.4-1.2,6.3-1.2s3.4,.2,4.9,.6c.4,.1,.8,.2,1.1,.3v6.6Z" style="fill: #0369a1;"/>
  <path d="M406.5,16.3c-2.8,0-5.7,.4-8.7,1.2-2.9,.8-5.6,1.7-7.8,2.8-2.3,1-3.9,2-4.8,2.9v42.8h15.7V29.5c1-.1,2.3-.2,3.9-.3,1.6,0,3.3,0,5.2,0,1.8,0,3.6,.2,5.2,.4,1.6,.2,3,.4,4,.7v-11.3c-1-.8-2.5-1.4-4.5-1.9-2-.5-4.7-.8-8.2-.8Z" style="fill: #0369a1;"/>
  <path d="M459.1,17.8l-9.1,29.9-9.2-29.9h-17.9l19.3,47.4c-.2,.6-.4,1.1-.6,1.5-.8,1.6-1.7,2.8-2.8,3.5-1.1,.7-2.4,1-3.9,1s-1.9,0-2.8-.3c-.9-.2-2-.5-3.2-.9v12.6c1.3,.6,2.7,1,4.4,1.3,1.7,.3,3.4,.5,5.1,.5s4.7-.6,7-1.8c2.3-1.2,4.4-3.2,6.5-5.9,2-2.8,3.9-6.4,5.7-11l18.5-48h-16.9Z" style="fill: #0369a1;"/>
</svg>