<?xml version="1.0" encoding="UTF-8"?>
<svg xmlns="http://www.w3.org/2000/svg" viewBox="0 0 512 512">
  <g id="uuid-3379694c-2cfd-45f0-8c65-a4a311f76d0e" data-name="Layer 2">
    <rect width="512" height="512" style="fill: #fff; opacity: 0;"/>
  </g>
  <g id="uuid-831e4380-fd2c-413e-ba01-0ebce0cdca29" data-name="bg">
    <g>
      <path d="M78,54.1l32.5,363.4,145.4,40.4,145.6-40.4L434,54.1H78Zm86.6,301.4l-6.4-71.6h44.8l3.3,37.2,49.6,13.3h.1s49.7-13.4,49.7-13.4l5.2-57.8H156.3l-12-134.9h223.4l-4,44.7H193.1l4,45.6h162.5l-12.2,136.9-91.4,25.3h-.1s-91.3-25.3-91.3-25.3Z" style="fill: #d1d5db;"/>
      <polygon points="310.9 263.2 305.7 321 256 334.4 256 263.2 310.9 263.2" style="fill: #dcdee2;"/>
      <polygon points="401.5 83.8 373.7 394.5 256 427.1 256 380.8 347.4 355.5 359.6 218.6 256 218.6 256 173 363.7 173 367.7 128.3 256 128.3 256 83.8 401.5 83.8" style="fill: #dcdee2;"/>
      <polygon points="256 334.4 256 334.4 255.9 334.4 256 334.4" style="fill: #fff;"/>
      <g>
        <polygon points="193.1 173 197.1 218.6 359.6 218.6 347.4 355.5 256 380.8 255.9 380.8 164.6 355.5 158.2 283.9 203 283.9 206.3 321.1 255.9 334.4 256 334.4 256 334.4 305.7 321 310.9 263.2 156.3 263.2 144.3 128.3 367.7 128.3 363.7 173 193.1 173" style="fill: #fff;"/>
        <polygon points="256 380.8 256 380.8 255.9 380.8 256 380.8" style="fill: #ebebeb;"/>
      </g>
    </g>
  </g>
</svg>