<?xml version="1.0" encoding="UTF-8"?>
<svg xmlns="http://www.w3.org/2000/svg" viewBox="0 0 512 512">
  <g id="uuid-d21e0ac6-fe55-4619-b788-b81832fe4a54" data-name="Layer 2">
    <rect width="512" height="512" style="fill: #fff; opacity: 0;"/>
  </g>
  <g id="uuid-6ed4eebc-956e-498e-8ebc-706849b00450" data-name="bg">
    <g>
      <path d="M78.3,54l33,363.3,144.5,40.7h0s145.2-41,145.2-41c0,0,19.5-216.1,28.4-314.8,.9-10.2,1.7-19.2,2.4-26.5,0-.7,.1-1.4,.2-2.1,0-.7,.1-1.4,.2-2,0-.5,0-1,.1-1.4,.1-1.4,.2-2.7,.4-4,0-.3,0-.5,0-.8,0-.8,.1-1.6,.2-2.3,0-1,.2-1.9,.2-2.7,0-.4,0-.8,.1-1.2,0-.7,.1-1.4,.2-2,0-.3,0-.6,0-.8,.1-1.5,.2-2.3,.2-2.3H78.3Zm60,245.4h0l18.7,5.1c.3,0,.7,.2,1.2,.3l35.8,9.8c.9,.2,1.8,.5,2.7,.7l10,2.7h0l.2-90.7v-1.6l.2-93.9h35.3v238.1h0c-1.6-.3-104.3-28.1-104.4-28.1v-42.5Zm243-125.1h-.2l-75.5,.3v62.1l70.8-7.9-9.6,116.3h0c0,0-95.8,25-95.8,25l-.6-42.1,69.4-18.5,1-34.4-68.7,11.8-1.5-154.5,113.8-.5-3.1,42.4Z" style="fill: #fff;"/>
      <path id="uuid-b847d3d5-4a02-42be-b366-45bab851c4fc" data-name="uuid-21a01d6f-e368-4dea-9b48-7222ad382853" d="M78.3,54l33.1,363.3,144.4,40.7h0s145.3-41,145.3-41c0,0,19.4-216.1,28.3-314.8,.9-10.2,1.7-19.2,2.4-26.5,0-.7,.1-1.4,.2-2.1,0-.7,.1-1.4,.2-2,0-.5,0-1,.1-1.4,.1-1.4,.2-2.7,.4-4,0-.3,0-.5,0-.8,0-.8,.1-1.6,.2-2.3,0-1,.2-1.9,.2-2.7,0-.4,0-.8,.1-1.2,0-.7,.1-1.4,.2-2,0-.3,0-.6,0-.8,.1-1.5,.2-2.3,.2-2.3H78.3Zm60,288v-42.5h0l18.7,5.1c.3,0,.7,.2,1.2,.3l35.8,9.8c.9,.2,1.8,.5,2.7,.7l10,2.7h0l.2-90.7v-1.6l.2-93.9h35.3v238.1h0c-1.6-.3-104.3-28.1-104.4-28.1ZM401.9,86.4l-27.6,311.1-116.9,32.1v-.5l-1.1-342.7h145.6Z" style="fill: #d1d5db;"/>
      <path id="uuid-3f6c6af9-8d9c-4fb8-88f8-9d7433635b54" data-name="uuid-9e2add4c-9478-400b-a3d4-62e24d34799b" d="M256.3,86.2V429.3l1.1-.3,116.9-31.8,27.6-310.9v-.2h-145.6Zm125,88.2h-.2l-75.5,.3v62.1l70.8-7.9-9.6,116.3h0c0,0-95.8,25-95.8,25l-.6-42.1,69.4-18.5,1-34.4-68.7,11.8-1.5-154.5,113.8-.5-3.1,42.4Z" style="fill: #dcdee2;"/>
    </g>
  </g>
</svg>