<?xml version="1.0" encoding="UTF-8"?>
<svg xmlns="http://www.w3.org/2000/svg" viewBox="0 0 512 512">
  <g id="uuid-4a7def66-6c45-49e6-87bf-a202a8ba357e" data-name="Layer 2">
    <rect width="512" height="512" style="fill: #fff; opacity: 0;"/>
  </g>
  <g id="uuid-049e9edf-0eb7-47ce-a39f-ea60932f052b" data-name="bg">
    <path d="M401.3,278.4c-14.2,0-26.3,3.5-36.6,8.5-3.8-7.5-7.6-14.1-8.2-18.9-.7-5.6-1.6-9.1-.7-15.9,.9-6.8,4.8-16.4,4.8-17.2s-.9-4.2-9-4.3-15.1,1.6-15.9,3.7c-.8,2.2-2.4,7-3.4,12.1-1.4,7.4-16.2,33.6-24.6,47.5-2.8-5.3-5.1-10.1-5.6-13.9-.7-5.6-1.6-9.1-.7-15.9s4.8-16.4,4.8-17.2-.9-4.2-9-4.3c-8.1,0-15.1,1.6-15.9,3.7-.8,2.2-1.7,7.2-3.4,12.1-1.7,4.8-21.4,48.8-26.5,60.2-2.6,5.8-4.8,10.5-6.5,13.7s0,.2-.2,.6c-1.4,2.7-2.2,4.2-2.2,4.2h0c-1.1,2.1-2.3,4-2.9,4s-1.2-5.2,.2-12.6c2.9-15.2,10-39,9.9-39.8,0-.4,1.4-4.6-4.6-6.7-5.7-2.2-7.8,1.4-8.3,1.4s-.9,1.3-.9,1.3c0,0,6.4-26.7-12.3-26.7s-27.8,12.7-35.7,24.2c-5,2.8-15.7,8.6-27.1,14.8-4.4,2.4-8.8,4.8-13.1,7.2l-.9-1c-22.6-24-64.3-41.1-62.5-73.4,.6-11.8,4.7-42.7,80.2-80.3,61.7-30.8,111.2-22.4,119.8-3.6,12.3,26.8-26.4,76.7-90.6,83.8-24.4,2.8-37.3-6.7-40.6-10.3-3.4-3.7-3.9-3.9-5.1-3.2-2.1,1.1-.8,4.5,0,6.4,1.9,4.9,9.8,13.8,23.2,18.2,11.8,3.9,40.5,6,75.1-7.4,38.9-15,69.3-56.9,60.4-91.8-9.1-35.5-68.1-47.2-123.8-27.4-33.2,11.9-69.2,30.3-95,54.5-30.8,28.7-35.6,53.8-33.5,64.2,7.2,37.1,58.4,61.4,78.9,79.3-1,.6-2,1.1-2.9,1.6-10.3,5-49.3,25.4-59.1,47.1-11.1,24.4,1.8,42.1,10.3,44.4,26.3,7.3,53.3-5.8,67.9-27.5,14.5-21.7,12.8-49.9,6-62.7l-.2-.5,8-4.7c5.2-3.1,10.3-5.9,14.8-8.3-2.5,6.8-4.4,14.9-5.2,26.8-1.1,13.9,4.6,31.9,12.1,39,3.3,3.1,7.2,3.2,9.7,3.2,8.7,0,12.7-7.2,16.9-15.7,5.3-10.5,10.1-22.7,10.1-22.7,0,0-5.9,32.9,10.3,32.9s11.9-7.6,14.5-11.6h0s.2-.2,.5-.7,.7-1,1-1.5v-.2c2.4-4.1,7.6-13.5,15.5-29,10.2-20,20-45.1,20-45.1,0,0,1,6.1,3.9,16.2,1.8,6,5.5,12.6,8.4,18.9-2.4,3.3-3.8,5.2-3.8,5.2h0c-1.9,2.6-4.1,5.2-6.2,7.9-8,9.6-17.7,20.6-18.9,23.7-1.5,3.7-1.2,6.4,1.8,8.7,2.2,1.6,5.9,1.9,9.9,1.6,7.2-.5,12.3-2.3,14.8-3.4,4-1.4,8.4-3.6,12.8-6.7,7.9-5.8,12.7-14.2,12.3-25.1-.2-6-2.2-12.1-4.7-17.7,.7-1,1.4-2.1,2.2-3.2,12.5-18.2,22.1-38.3,22.1-38.3,0,0,1,6.1,3.9,16.2,1.5,5.1,4.5,10.7,7.2,16.2-11.7,9.5-19,20.6-21.6,27.8-4.7,13.4-1,19.5,5.8,20.9,3.1,.6,7.5-.8,10.8-2.2,4.1-1.4,9.1-3.7,13.7-7,7.9-5.8,15.4-14,15-24.9-.2-5-1.6-10-3.4-14.7,9.9-4.1,22.8-6.4,39.1-4.5,35.1,4.1,42.1,26,40.7,35.1s-8.7,14.2-11.1,15.7c-2.5,1.5-3.3,2.1-3,3.2,.3,1.7,1.4,1.6,3.6,1.3,2.9-.5,18.4-7.5,19.1-24.3,1-21.7-19.6-45.3-56.1-45.1h-.5Zm-270.6,91.1c-11.6,12.7-27.9,17.5-34.8,13.4-7.5-4.4-4.6-23.1,9.7-36.5,8.7-8.2,20-15.7,27.4-20.4,1.7-1,4.2-2.5,7.2-4.4,.5-.3,.8-.5,.8-.5,.6-.3,1.2-.7,1.8-1.1,5.2,19.2,.2,36.1-12,49.5h-.1Zm84.8-57.7c-4.1,9.9-12.6,35.1-17.7,33.7-4.5-1.2-7.1-20.4-.9-39.3,3.2-9.5,9.9-20.9,13.8-25.3,6.4-7.1,13.4-9.5,15-6.5,2.1,3.8-7.8,31.3-10.3,37.4h0Zm70,33.4c-1.8,.9-3.3,1.5-4.1,1-.6-.3,.7-1.5,.7-1.5,0,0,8.7-9.4,12.3-13.8,2-2.5,4.4-5.4,6.8-8.7v1c0,11.4-10.9,18.9-15.7,22h0Zm53.9-12.3c-1.3-1-1.1-3.9,3.2-13,1.7-3.7,5.4-9.7,12-15.4,.8,2.4,1.3,4.7,1.2,6.8,0,14.2-10.2,19.5-16.3,21.7h-.1Z" style="fill: #d1d5db;"/>
  </g>
</svg>