<?xml version="1.0" encoding="UTF-8"?>
<svg id="uuid-07eb5aa6-8380-48b2-81fe-707dd777fbcd" data-name="Layer 1" xmlns="http://www.w3.org/2000/svg" viewBox="0 0 512 512">
  <rect width="512" height="512" style="fill: #7dd3fc; opacity: 0;"/>
  <g id="uuid-7d56d070-6f1f-49e7-bb6c-210c3f54d341" data-name="Guides to delete">
    <g>
      <polygon points="110.5 417.5 78 54.1 434 54.1 401.5 417.5 255.9 457.9 110.5 417.5" style="fill: #e34e26;"/>
      <polygon points="256 83.8 256 427.1 373.7 394.5 401.5 83.8 256 83.8" style="fill: #ef662a;"/>
      <polygon points="144.3 128.3 156.3 263.2 310.9 263.2 305.7 321 255.9 334.4 206.3 321.1 203 283.9 158.2 283.9 164.6 355.5 255.9 380.8 347.4 355.5 359.6 218.6 197.1 218.6 193.1 173 363.5 173 363.7 173 367.7 128.3 144.3 128.3" style="fill: #fff;"/>
      <g>
        <polygon points="256 128.3 144.3 128.3 156.3 263.2 256 263.2 256 218.6 197.1 218.6 193.1 173 256 173 256 128.3" style="fill: #ebebeb;"/>
        <polygon points="256 334.4 255.9 334.4 206.3 321.1 203 283.9 158.2 283.9 164.6 355.5 255.9 380.8 256 380.8 256 334.4" style="fill: #ebebeb;"/>
      </g>
    </g>
  </g>
</svg>