<?xml version="1.0" encoding="UTF-8"?>
<svg xmlns="http://www.w3.org/2000/svg" viewBox="0 0 512 512">
  <g id="uuid-039a2b68-3f33-422e-a5c3-a4d1761efecf" data-name="Layer 2">
    <rect width="512" height="512" style="fill: #fff; opacity: 0;"/>
  </g>
  <g id="uuid-cd66fac6-3f9b-422d-ab37-77ee409ce34c" data-name="bg">
    <g>
      <path d="M79,54l29.7,362.3v-.2l148.7,41.8,144.3-41.8,31.3-361.5-354-.6Zm85.5,301.4l-5.9-69.7h43.5l3.6,33.5,47.3,12.2,4.4-.9,47.9-9.3,5.6-59H156.6l-6.1-42.3,104.7-44.9h-106.5l-6.1-43.7h224.4c0-.1,.1-.1,.1-.1v42.8l-103,42.8h94.5l-11.4,136.3-89.4,28.4h-.4c0-.1-92.9-26.1-92.9-26.1Z" style="fill: #d1d5db;"/>
      <polygon points="305.3 321.2 257.4 330.6 257.4 262.3 310.9 262.3 305.3 321.2" style="fill: #d1d5db;"/>
      <polygon points="403.2 89 377.1 388.4 257.4 423.1 257.4 381.4 257.8 381.5 347.2 353.2 358.6 216.9 264.1 216.9 367.1 174.1 367.1 131.3 367 131.3 366.9 131.4 257.4 131.4 257.4 88.5 403.2 89" style="fill: #dcdee2;"/>
    </g>
  </g>
</svg>