<?xml version="1.0" encoding="UTF-8"?>
<svg id="uuid-4f28db3e-1d09-4c31-a5e3-88bff885f723" data-name="Layer 1" xmlns="http://www.w3.org/2000/svg" viewBox="0 0 512 512">
  <g id="uuid-4ff6fcf5-6213-443a-b1f2-770e28da51e0" data-name="uuid-17b98a49-328e-43c0-ba56-02f77945771d">
    <rect width="512" height="512" style="fill: rgba(255, 255, 255, 0);"/>
  </g>
  <path d="M386.8,192.5c-4.2-1.4-8.6-2.8-13-4.1,.7-3,1.4-6,2-8.9,9.9-47.9,3.4-86.5-18.6-99.2-21.1-12.2-55.7,.5-90.5,30.9-3.4,2.9-6.7,6-10.1,9.2-2.2-2.1-4.5-4.2-6.7-6.2-36.6-32.5-73.2-46.1-95.2-33.4-21.1,12.2-27.3,48.5-18.5,93.9,.9,4.4,1.9,8.9,3,13.4-5.2,1.5-10.2,3-15,4.7-42.9,14.9-70.2,38.4-70.2,62.6s29.4,50.2,74,65.5c3.5,1.2,7.2,2.3,10.9,3.4-1.2,4.9-2.3,9.7-3.2,14.4-8.5,44.6-1.9,80,19.2,92.1,21.7,12.5,58.2-.3,93.7-31.4,2.8-2.5,5.6-5.1,8.4-7.8,3.7,3.5,7.3,6.9,10.9,10,34.4,29.6,68.4,41.6,89.4,29.4,21.7-12.6,28.8-50.6,19.6-96.9-.7-3.5-1.5-7.1-2.4-10.8,2.6-.8,5.1-1.5,7.5-2.4,46.4-15.4,76.6-40.2,76.6-65.7s-28.3-48-72-63h0Z" style="fill: #d1d5db;"/>
  <path d="M376.8,304.7c-2.2,.7-4.5,1.4-6.8,2.1-5.1-16.2-12-33.5-20.5-51.3,8.1-17.4,14.7-34.4,19.7-50.5,4.1,1.2,8.2,2.5,12,3.8,37.5,12.9,60.3,32,60.3,46.7s-24.7,36-64.7,49.2h0Zm-16.6,32.9c4.1,20.5,4.6,39,1.9,53.4-2.4,13-7.3,21.7-13.3,25.1-12.8,7.4-40-2.2-69.5-27.5-3.4-2.9-6.8-6-10.2-9.3,11.4-12.5,22.8-27,33.9-43.1,19.6-1.7,38.1-4.6,54.8-8.5,.8,3.3,1.6,6.6,2.2,9.8h0Zm-168.1,77.3c-12.5,4.4-22.4,4.5-28.4,1.1-12.8-7.4-18.1-35.8-10.8-73.9,.8-4.4,1.8-8.9,3-13.4,16.6,3.7,34.9,6.3,54.6,7.9,11.2,15.8,22.9,30.2,34.7,42.9-2.6,2.5-5.2,4.9-7.7,7.1-15.7,13.7-31.4,23.5-45.3,28.4h0Zm-58.4-110.3c-19.7-6.7-36-15.5-47.2-25.1-10-8.6-15.1-17.1-15.1-24.1,0-14.7,22-33.5,58.6-46.3,4.4-1.6,9.1-3,13.9-4.4,5.1,16.5,11.7,33.7,19.7,51.1-8.1,17.7-14.9,35.2-20,51.9-3.4-1-6.8-2-10-3.1h0Zm19.6-133.2c-7.6-38.9-2.6-68.2,10.2-75.6,13.5-7.8,43.5,3.3,75.1,31.4,2,1.8,4,3.7,6.1,5.6-11.8,12.6-23.4,27-34.5,42.7-19,1.8-37.3,4.6-54,8.4-1.1-4.2-2-8.4-2.8-12.5h0Zm174.6,43.1c-4-6.9-8.1-13.7-12.3-20.2,12.9,1.6,25.3,3.8,36.9,6.5-3.5,11.2-7.8,22.9-13,34.9-3.7-7-7.6-14-11.6-21.1h0Zm-71.2-69.4c8,8.6,16,18.3,23.8,28.8-7.9-.4-15.9-.6-24-.6s-16,.2-23.8,.6c7.9-10.4,15.9-20,24-28.7h0Zm-71.7,69.5c-4,6.9-7.8,13.9-11.4,20.9-5-11.9-9.3-23.7-12.9-35,11.5-2.6,23.9-4.7,36.7-6.3-4.3,6.6-8.4,13.4-12.4,20.4h0Zm12.8,103.3c-13.3-1.5-25.8-3.5-37.3-6,3.6-11.5,8-23.5,13.1-35.7,3.6,7,7.5,14,11.5,20.9h0c4.1,7.1,8.3,14,12.7,20.8h0Zm59.4,49.1c-8.2-8.8-16.4-18.6-24.4-29.1,7.8,.3,15.7,.5,23.7,.5s16.4-.2,24.4-.5c-7.9,10.7-15.8,20.5-23.8,29.2h0Zm82.5-91.4c5.4,12.3,10,24.3,13.6,35.6-11.7,2.7-24.4,4.8-37.8,6.4,4.2-6.7,8.4-13.5,12.4-20.6,4.1-7.2,8-14.3,11.7-21.4h0Zm-26.7,12.8c-6.3,11-12.8,21.4-19.4,31.3-12,.9-24.4,1.3-37.1,1.3s-24.9-.4-36.7-1.2c-6.9-10-13.5-20.5-19.8-31.4h0c-6.3-10.8-12-21.8-17.3-32.6,5.2-10.9,11-21.8,17.2-32.6h0c6.3-10.8,12.8-21.3,19.6-31.2,12-.9,24.4-1.4,36.9-1.4h0c12.5,0,24.9,.5,36.9,1.4,6.7,9.9,13.2,20.3,19.5,31.1,6.3,11,12.2,21.8,17.5,32.5-5.3,10.8-11.1,21.8-17.4,32.8h0Zm35.7-193.1c13.6,7.8,18.8,39.3,10.3,80.7-.5,2.6-1.2,5.3-1.8,8-16.8-3.9-35-6.8-54.1-8.5-11.1-15.8-22.6-30.2-34.2-42.7,3.1-3,6.2-5.8,9.3-8.5,29.9-26,57.8-36.3,70.5-28.9h0Z" style="fill: #fff;"/>
  <path d="M256.4,219.3c20,0,36.1,16.2,36.1,36.1s-16.2,36.1-36.1,36.1-36.1-16.2-36.1-36.1,16.2-36.1,36.1-36.1" style="fill: #d1d5db;"/>
</svg>