<?xml version="1.0" encoding="UTF-8"?>
<svg id="uuid-4d9cea6e-4808-4924-ae5d-7fbe9c6b15dc" data-name="Layer 1" xmlns="http://www.w3.org/2000/svg" viewBox="0 0 404 247.4">
  <path d="M199.8,247.4c-1.4,0-2.6-.4-3.8-1l-12.2-7.2c-1.8-1-.9-1.4-.4-1.5,2.5-.8,2.9-1,5.5-2.5,.3-.2,.6,0,.9,0l9.3,5.5c.4,.2,.8,.2,1.1,0l36.5-21.1c.4-.2,.5-.5,.5-1v-42.1c0-.5-.2-.8-.5-1l-36.5-21c-.4-.2-.8-.2-1.1,0l-36.5,21c-.4,.2-.5,.6-.5,1v42.1c0,.4,.2,.8,.5,1l9.9,5.7c5.4,2.7,8.7-.5,8.7-3.6v-41.5c0-.5,.5-1.1,1.1-1.1h4.6c.5,0,1.1,.5,1.1,1.1v41.5c0,7.2-3.9,11.5-10.8,11.5s-3.7,0-8.4-2.3l-9.5-5.5c-2.4-1.4-3.8-3.9-3.8-6.6v-42.1c0-2.7,1.5-5.3,3.8-6.6l36.5-21.1c2.3-1.3,5.4-1.3,7.6,0l36.5,21.1c2.4,1.4,3.8,3.9,3.8,6.6v42.1c0,2.7-1.5,5.3-3.8,6.6l-36.5,21.1c-1.2,.5-2.5,.8-3.8,.8v.2Zm11.3-28.9c-16,0-19.3-7.3-19.3-13.5s.5-1.1,1.1-1.1h4.7c.5,0,1,.4,1,.9,.7,4.8,2.8,7.2,12.5,7.2s11-1.7,11-5.8-.9-4.1-12.9-5.3c-9.9-1-16.2-3.2-16.2-11.2s6.2-11.8,16.6-11.8,17.5,4,18.2,12.8c0,.3,0,.5-.3,.8s-.5,.4-.7,.4h-4.7c-.5,0-.9-.4-1-.8-1.1-5-3.9-6.6-11.5-6.6s-9.4,2.9-9.4,5.1,1.2,3.5,12.5,4.9c11.3,1.5,16.5,3.5,16.5,11.5s-6.6,12.6-18.3,12.6h.3Z" style="fill: #7dd3fc;"/>
  <path d="M86.8,82.7c0-1.6-.9-3.2-2.4-4l-38.7-22.3c-.6-.4-1.4-.5-2.1-.6h-.4c-.7,0-1.5,.3-2.1,.6L2.4,78.7c-1.5,.8-2.4,2.4-2.4,4v59.9c0,.8,.5,1.6,1.3,2,.7,.5,1.6,.5,2.3,0l23-13.2c1.5-.8,2.4-2.4,2.4-4v-28c0-1.6,.9-3.2,2.4-4l9.7-5.6c.7-.5,1.5-.6,2.4-.6s1.6,.2,2.3,.6l9.7,5.6c1.5,.8,2.4,2.4,2.4,4v28c0,1.6,.9,3.2,2.4,4l23,13.2c.7,.5,1.6,.5,2.4,0,.7-.4,1.2-1.2,1.2-2v-59.9h-.3Z" style="fill: #7dd3fc;"/>
  <path d="M272.9,.3c-.7-.4-1.6-.4-2.3,0-.7,.5-1.2,1.2-1.2,2V61.7c0,.5-.3,1.1-.8,1.5-.5,.3-1.1,.3-1.6,0l-9.6-5.5c-1.5-.8-3.2-.8-4.6,0l-38.7,22.4c-1.5,.8-2.4,2.4-2.4,4v44.6c0,1.6,.9,3.2,2.4,4l38.7,22.4c1.5,.8,3.2,.8,4.6,0l38.7-22.4c1.5-.8,2.4-2.4,2.4-4V17.4c0-1.7-.9-3.3-2.4-4.1L272.9,.4h0Zm-3.5,113.4c0,.5-.2,.8-.5,1l-13.3,7.6c-.4,.2-.8,.2-1.2,0l-13.3-7.6c-.4-.2-.5-.6-.5-1v-15.4c0-.5,.2-.8,.5-1l13.3-7.6c.4-.2,.8-.2,1.2,0l13.3,7.6c.4,.2,.5,.6,.5,1v15.4h0Z" style="fill: #7dd3fc;"/>
  <g>
    <path d="M401.7,98.2c1.5-.8,2.3-2.4,2.3-4v-10.9c0-1.6-.9-3.2-2.3-4l-38.5-22.3c-1.5-.8-3.2-.8-4.6,0l-38.7,22.4c-1.5,.8-2.4,2.4-2.4,4v44.6c0,1.6,.9,3.2,2.4,4l38.5,21.9c1.5,.8,3.2,.8,4.5,0l23.3-13c.7-.4,1.2-1.2,1.2-2s-.5-1.6-1.2-2l-38.9-22.4c-.7-.5-1.2-1.2-1.2-2v-14c0-.8,.5-1.6,1.2-2l12.2-6.9c.7-.5,1.6-.5,2.4,0l12.2,6.9c.7,.5,1.2,1.2,1.2,2v11c0,.8,.5,1.6,1.2,2,.7,.5,1.6,.5,2.4,0l23-13.5h-.2Z" style="fill: #7dd3fc;"/>
    <path d="M360.4,96.1c.3-.2,.6-.2,.9,0l7.4,4.3c.3,.2,.5,.5,.5,.8v8.5c0,.4-.2,.6-.5,.8l-7.4,4.3c-.3,.2-.6,.2-.9,0l-7.4-4.3c-.3-.2-.5-.5-.5-.8v-8.5c0-.4,.2-.6,.5-.8l7.4-4.3h0Z" style="fill: #7dd3fc;"/>
  </g>
  <g>
    <path id="uuid-ea334b2d-4b77-46e5-9a0c-03493fb9fea0" data-name="uuid-f891bc1b-086b-4d95-b9d2-f8bda2dd3d8e" d="M151.6,57.2c-1.5-.8-3.2-.8-4.6,0l-38.5,22.2c-1.5,.8-2.3,2.4-2.3,4v44.5c0,1.6,.9,3.2,2.3,4l38.5,22.2c1.5,.8,3.2,.8,4.6,0l38.5-22.2c1.5-.8,2.3-2.4,2.3-4v-44.5c0-1.6-.9-3.2-2.3-4l-38.5-22.2h0Z" style="fill: #7dd3fc;"/>
    <g>
      <path d="M146.8,57.2l-38.5,22.2c-1.5,.8-2.5,2.4-2.5,4v44.5c0,1.1,.5,2.1,1.2,2.9l43.3-74.1c-1.1-.2-2.4,0-3.5,.5h0Z" style="fill: #7dd3fc;"/>
      <path d="M150.6,154.5c.4,0,.7-.3,1.1-.5l38.5-22.2c1.5-.8,2.4-2.4,2.4-4v-44.5c0-1.2-.5-2.4-1.4-3.2l-40.6,74.3h0Z" style="fill: #7dd3fc;"/>
      <path d="M190.1,79.4l-38.6-22.2c-.4-.2-.8-.4-1.2-.5l-43.3,74.1c.4,.5,.8,.8,1.3,1.1l38.6,22.2c1.1,.6,2.4,.8,3.5,.5l40.6-74.3c-.3-.4-.6-.6-1-.9h.1Z" style="fill: #7dd3fc;"/>
    </g>
    <g>
      <path d="M192.5,127.8v-44.5c0-1.6-1-3.2-2.5-4l-38.6-22.2c-.5-.3-.9-.5-1.5-.5l42.3,72.2c.2-.3,.3-.6,.3-1h0Z" style="fill: #7dd3fc;"/>
      <path d="M108.3,79.4c-1.5,.8-2.5,2.4-2.5,4v44.5c0,1.6,1.1,3.2,2.5,4l38.6,22.2c.9,.5,1.9,.7,3,.5l-41.4-75.4h-.2Z" style="fill: #7dd3fc;"/>
      <path d="M145.6,49l-.5,.3h.7l-.2-.3Z" style="fill: #7dd3fc; fill-rule: evenodd;"/>
      <path d="M190.2,131.8c1.1-.6,1.9-1.7,2.3-2.9l-42.4-72.3c-1.1-.2-2.3,0-3.3,.5l-38.4,22.1,41.4,75.5c.5,0,1.2-.3,1.7-.5l38.6-22.3h.1Z" style="fill: #7dd3fc; fill-rule: evenodd;"/>
      <path d="M193.7,131.1l-.3-.5v.6l.3-.2h0Z" style="fill: #7dd3fc; fill-rule: evenodd;"/>
      <path d="M190.2,131.8l-38.5,22.2c-.5,.3-1.1,.5-1.7,.5l.7,1.4,42.7-24.7v-.5l-1.1-1.8c-.2,1.3-1,2.4-2.1,3h0Z" style="fill: #7dd3fc; fill-rule: evenodd;"/>
      <path d="M190.2,131.8l-38.5,22.2c-.5,.3-1.1,.5-1.7,.5l.7,1.4,42.7-24.7v-.5l-1.1-1.8c-.2,1.3-1,2.4-2.1,3h0Z" style="fill: #7dd3fc; fill-rule: evenodd;"/>
    </g>
  </g>
</svg>