<?xml version="1.0" encoding="UTF-8"?>
<svg id="uuid-717ffddd-f6a5-4256-81e9-e0b85fa3e157" data-name="Layer 1" xmlns="http://www.w3.org/2000/svg" viewBox="0 0 512 512">
  <rect width="512" height="512" style="fill: #7dd3fc; opacity: 0;"/>
  <g id="uuid-2a28d719-7a2e-4d57-9404-45b651ba8e53" data-name="uuid-cfdae88f-860b-47f2-990e-36b1b259e7e0">
    <g id="uuid-9b4316bb-71a6-41ff-82be-57ba41df5255" data-name="uuid-e3701485-b055-4bf4-877e-a68d55a8bdbf">
      <g id="uuid-2c7c1bdf-6962-469d-a285-07728c491017" data-name="uuid-3d120b96-52f6-4ef9-84b9-757e9e6df8c6">
        <g id="uuid-8231c94d-2dfb-424e-b339-8978e5a5f691" data-name="uuid-45e1030a-06c6-405b-8f94-9cc57a0c7c4e">
          <path d="M196.9,261.3h0s0,0,0,0h0Z" style="fill: #7dd3fc;"/>
          <path d="M235.8,249.2c1.5,4.4,2.9,8.5,3.9,12.1h-42.8c2.5-7.1,5-14.9,7.4-23.5,2.6-8.5,5.1-16.9,7.7-25,2.3-7.2,4.2-14.5,5.7-21.7h.3c1.2,4.1,2.3,8.4,3.7,13.2,1.4,4.9,2.9,9.9,4.6,15,1.7,5.1,3.2,10.2,4.9,15.4,1.5,5.1,3.1,9.9,4.6,14.5Z" style="fill: #7dd3fc;"/>
          <path d="M386.5,59.1H125.5c-39.5,0-71.5,32-71.5,71.6v250.7c0,39.5,32,71.5,71.5,71.5H386.5c39.5,0,71.5-31.9,71.5-71.5V130.6c0-39.5-31.9-71.5-71.5-71.5Zm-85.1,278.4h-35.2c-1.2,.2-2.4-.7-2.7-1.9l-13.8-40.1h-62.5l-12.8,39.6c-.3,1.5-1.7,2.5-3.2,2.4h-31.7c-1.9,0-2.4-1-1.9-3.1l54.2-156.1c.5-1.7,1-3.6,1.7-5.5,.7-3.6,1-7.2,1-10.9-.2-.9,.5-1.7,1.4-1.9h43.6c1.4,0,2,.5,2.2,1.4l61.4,173.4c.5,1.9,0,2.7-1.7,2.7Zm57.5-2.6c0,1.9-.7,2.7-2.2,2.7h-33c-1.7,0-2.5-1-2.5-2.7h-.1V205.3c0-1.7,.7-2.4,2.2-2.4h33.4c1.5,0,2.2,.9,2.2,2.4v129.6Zm-3.8-152c-3.9,4.1-9.6,6.2-15.3,5.8-5.5,.2-10.9-2-14.9-5.8-3.9-4.2-5.9-9.8-5.7-15.4-.2-5.7,2-11.1,6-15,4.1-3.9,9.4-5.8,15-5.8s11.6,2,15.3,5.8c3.7,4.1,5.7,9.4,5.5,15,.2,5.7-1.9,11.3-5.9,15.4Z" style="fill: #7dd3fc;"/>
        </g>
      </g>
    </g>
  </g>
</svg>