<?xml version="1.0" encoding="UTF-8"?>
<svg xmlns="http://www.w3.org/2000/svg" viewBox="0 0 512 512">
  <g id="uuid-0b500d58-11ad-4dfe-aa64-1dd24ea4bd2f" data-name="Layer 2">
    <rect width="512" height="512" style="fill: #fff; opacity: 0;"/>
  </g>
  <g id="uuid-420066a4-7bab-4dec-b1fc-2dd4198d77d9" data-name="bg">
    <path d="M256.8,457.5c-5.7,0-10.6-1.6-15.4-4.1l-49.5-29.2c-7.3-4.1-3.7-5.7-1.6-6.1,10.1-3.2,11.8-4.1,22.3-10.1,1.2-.8,2.4,0,3.7,0l37.7,22.3c1.6,.8,3.2,.8,4.5,0l148.2-85.6c1.6-.8,2-2,2-4.1V169.7c0-2-.8-3.2-2-4.1l-148.2-85.2c-1.6-.8-3.2-.8-4.5,0L105.8,165.6c-1.6,.8-2,2.4-2,4.1v170.9c0,1.6,.8,3.2,2,4.1l40.2,23.1c21.9,11,35.3-2,35.3-14.6V184.7c0-2,2-4.5,4.5-4.5h18.7c2,0,4.5,2,4.5,4.5v168.4c0,29.2-15.8,46.7-43.8,46.7s-15,0-34.1-9.3l-38.6-22.3c-9.7-5.7-15.4-15.8-15.4-26.8V170.5c0-11,6.1-21.5,15.4-26.8L240.6,58.1c9.3-5.3,21.9-5.3,30.8,0l148.2,85.6c9.7,5.7,15.4,15.8,15.4,26.8v170.9c0,11-6.1,21.5-15.4,26.8l-148.2,85.6c-4.9,2-10.1,3.2-15.4,3.2v.8l.8-.4Zm45.9-117.3c-64.9,0-78.3-29.6-78.3-54.8s2-4.5,4.5-4.5h19.1c2,0,4.1,1.6,4.1,3.7,2.8,19.5,11.4,29.2,50.7,29.2s44.6-6.9,44.6-23.5-3.7-16.6-52.4-21.5c-40.2-4.1-65.8-13-65.8-45.5s25.2-47.9,67.4-47.9,71,16.2,73.9,52c0,1.2,0,2-1.2,3.2s-2,1.6-2.8,1.6h-19.1c-2,0-3.7-1.6-4.1-3.2-4.5-20.3-15.8-26.8-46.7-26.8s-38.2,11.8-38.2,20.7,4.9,14.2,50.7,19.9c45.9,6.1,67,14.2,67,46.7s-26.8,51.1-74.3,51.1h1.2l-.4-.4Z" style="fill: #d1d5db;"/>
  </g>
</svg>