<?xml version="1.0" encoding="UTF-8"?>
<svg id="uuid-540dd060-dc7c-4984-8a09-b58689b1b616" data-name="Layer 1" xmlns="http://www.w3.org/2000/svg" viewBox="0 0 512 512">
  <rect width="512" height="512" style="fill: #7dd3fc; opacity: 0;"/>
  <g>
    <path d="M434,53.7c0,.1-32.8,363.5-32.8,363.5l-145.5,41.1-144.7-40.8L78,53.7H434Z" style="fill: #fff;"/>
    <path id="uuid-21a01d6f-e368-4dea-9b48-7222ad382853" data-name="path5113" d="M78,53.7l33.1,363.8,144.7,40.8,145.5-41.1S434,53.8,434,53.7H78ZM242.7,370.3s-104.5-28.2-104.6-28.2v-42.6h.1s18.7,5.1,18.7,5.1c.3,0,.7,.2,1.2,.3l35.9,9.8c.9,.2,1.8,.5,2.7,.7l10,2.7h.1s0,0,0,0l.2-90.8v-1.6s.2-94,.2-94h35.4v238.5Zm131.8,27.4l-117.1,32.1v-.5l-1.1-343.2h145.8l-27.6,311.6Z" style="fill: #d4b830;"/>
    <path id="uuid-9e2add4c-9478-400b-a3d4-62e24d34799b" data-name="path5117" d="M256.3,85.9V429.6l1.1-.3,117.1-31.8,27.6-311.4v-.2s-145.8,0-145.8,0Zm125,88.3l-75.6,.3v62.2l70.9-7.9-9.6,116.5h-.1c0,.1-95.9,25-95.9,25l-.6-42.2,69.5-18.5,1-34.5-68.8,11.8-1.5-154.7,114-.5-3.1,42.5Z" style="fill: #fdd83c;"/>
  </g>
</svg>