<?xml version="1.0" encoding="UTF-8"?>
<svg id="uuid-55b5adaa-84fb-483f-bcbf-e96d71d0abd3" data-name="Layer 1" xmlns="http://www.w3.org/2000/svg" viewBox="0 0 403.9 121.9">
  <path d="M223.7,33.6l3.6,.2v-9.6h-3.4c-4.3-.2-8.2,.3-11.5,1.4-3.3,1.1-6.3,2.5-8.7,4.4-1,.8-1.9,1.6-2.7,2.4v-6.7h-9.5V99h9.5V58c0-3.3,.5-6.5,1.4-9.6,.9-3,2.3-5.7,4.1-7.9,1.8-2.2,4.2-4,7-5.3s6.2-1.8,10.2-1.6h0Z" style="fill: #7dd3fc;"/>
  <path d="M178.5,35.3c-2.8-3.5-6.2-6.2-10.1-8.2-4-2-8.4-2.9-13.3-2.9s-7.3,.6-10.5,1.7c-3.3,1.1-6.2,2.7-8.7,4.8-1.5,1.2-2.9,2.6-4.2,4.1v-9h-18.3l-21.1,27.8-20.7-27.8h-12l26.7,35.5-21.9,28.4H9.5V52.4h55.2v-9.5H9.5V9.5h58.7V0H0V99.2H68.8l23.3-30.2,23.4,30.2h6.6v22.7h9.5v-31.3c1.2,1.3,2.4,2.6,3.8,3.7,5.2,4.1,11.8,6.2,19.6,6.2s9.7-1.1,13.7-3.2,7.3-5,10-8.6c2.6-3.5,4.6-7.6,6-12.2,1.3-4.5,2-9.3,2-14.3s-.7-10.3-2.1-14.8c-1.4-4.6-3.5-8.7-6.1-12.1h0Zm-1.2,26.9c0,3.6-.5,7.2-1.4,10.7-.9,3.4-2.3,6.6-4.1,9.3-1.8,2.6-4.1,4.8-6.9,6.5-2.7,1.6-6,2.4-9.9,2.4-7.1,0-12.7-2.3-16.9-7.2-4.3-4.9-6.5-12.2-6.5-21.7s.6-7.7,1.7-11.3c1.1-3.5,2.6-6.5,4.7-9.1,2-2.5,4.4-4.5,7.3-6,2.9-1.5,6.2-2.2,9.8-2.2s7,.7,9.7,2.2,5,3.5,6.8,6c1.9,2.6,3.3,5.7,4.3,9.1,1,3.5,1.5,7.3,1.5,11.3h-.1Zm-55.2,30l-24-31,24-31.7v62.7Z" style="fill: #7dd3fc;"/>
  <path d="M279,36.4c-2.7-3.7-6.2-6.7-10.4-8.9-4.2-2.2-9.3-3.4-15-3.4s-8.3,.9-12.2,2.6c-4,1.7-7.5,4.3-10.5,7.6-2.9,3.3-5.3,7.3-7.1,12-1.8,4.7-2.7,10-2.7,16s.6,10.1,1.8,14.6c1.2,4.7,3.2,8.8,5.7,12.3,2.7,3.6,6.1,6.4,10.3,8.4,3.9,1.9,8.6,2.8,13.9,2.8s.5,0,.8,0c8.4,0,15.5-2.4,21.3-7.2,5.8-4.8,9.3-11.6,10.4-20.3l.5-3.9h-9.4l-.4,2.9c-1,6.5-3.4,11.2-7.3,14.3-4,3.2-9,4.7-15.2,4.7s-7.7-.7-10.5-2.1-5-3.3-6.8-5.7c-1.8-2.5-3.2-5.5-4-8.9-.7-2.5-1.1-5.3-1.3-8.2h55.3v-3.3c.3-4.9-.2-9.6-1.3-14.2-1.2-4.6-3.1-8.8-5.7-12.4l-.2,.3Zm-48,20.4c.4-2.8,1.1-5.5,2-7.8,1.3-3.3,3-6.1,5.1-8.5,2-2.3,4.4-4,7.1-5.2s5.6-1.8,8.8-1.8,7.1,.7,9.9,2c2.8,1.4,5.2,3.2,7,5.6,1.9,2.4,3.4,5.3,4.4,8.5,.7,2.3,1.2,4.7,1.4,7.1h-45.7Z" style="fill: #7dd3fc;"/>
  <path d="M401.6,69c-1.5-2.4-3.5-4.4-6-6-2.3-1.5-4.9-2.6-7.7-3.4-2.5-.7-5.1-1.5-7.8-2.2-3.6-.9-6.8-1.8-9.5-2.5-2.5-.6-4.9-1.4-7.1-2.3-1.7-.7-3-1.7-4-3-.9-1.1-1.3-3-1.3-5.5,0,0,0-.6,.4-2.5,.2-1,.8-2.1,1.8-3.3s2.5-2.3,4.7-3.3,5.4-1.5,9.5-1.5,5.5,.3,7.9,.9c2.2,.6,4,1.5,5.5,2.7s2.6,2.6,3.4,4.5,1.3,4.3,1.3,7.1v3.4h9.5v-3.4c0-8.5-2.6-14.8-7.8-18.9-4.9-3.8-11.5-5.8-19.7-5.8s-8.4,.6-11.6,1.8-6,2.8-8.1,4.7c-2.2,2-3.8,4.3-4.8,6.7-.9,2.4-1.4,4.7-1.4,6.9,0,4.2,.8,7.7,2.4,10.4,1.7,2.8,4.2,4.9,7.6,6.4,2,.9,4.4,1.8,6.9,2.5,2.4,.7,5.3,1.4,8.5,2.2,2.8,.7,5.6,1.4,8.4,2.1,2.5,.6,4.6,1.4,6.5,2.5,1.7,.9,3,2.1,4.1,3.5,.9,1.2,1.3,2.9,1.3,5.1s-.5,3.9-1.4,5.3c-1.1,1.6-2.4,2.8-4,3.8-1.7,1-3.7,1.8-5.9,2.3-2.3,.5-4.5,.8-6.7,.8-7,0-12.3-1.5-15.8-4.4-3.4-2.8-5-7.4-5-13.8v-3.4h-9.5v3.4c0,9.4,2.7,16.4,8,21,5.1,4.4,12.7,6.6,22.3,6.6s6.2-.4,9.3-1.1c3.3-.7,6.2-2,8.9-3.6,2.7-1.7,4.9-4,6.6-6.8,1.7-2.9,2.6-6.3,2.6-10.3s-.8-7.1-2.4-9.6h.1Z" style="fill: #7dd3fc;"/>
  <path d="M335.8,63.1c-2.3-1.5-4.9-2.6-7.7-3.4-2.5-.7-5.1-1.5-7.8-2.2-3.6-.9-6.8-1.8-9.5-2.5-2.5-.6-4.9-1.4-7.1-2.3-1.7-.7-3-1.7-4-3-.9-1.1-1.3-3-1.3-5.5,0,0,0-.6,.4-2.5,.2-1,.8-2.1,1.8-3.3s2.5-2.3,4.7-3.3,5.4-1.5,9.5-1.5,5.5,.3,7.9,.9c2.1,.6,4,1.5,5.5,2.7s2.6,2.6,3.4,4.5,1.3,4.3,1.3,7.1v3.4h9.5v-3.4c0-8.5-2.6-14.8-7.8-18.9-4.9-3.8-11.5-5.8-19.7-5.8s-8.4,.6-11.6,1.8-6,2.8-8.1,4.7c-2.2,2-3.8,4.3-4.8,6.7-.9,2.4-1.4,4.7-1.4,6.9,0,4.2,.8,7.7,2.4,10.4,1.7,2.8,4.2,4.9,7.6,6.4,2,.9,4.4,1.8,6.9,2.5,2.4,.7,5.3,1.5,8.5,2.2,2.8,.7,5.6,1.4,8.4,2.1,2.5,.6,4.6,1.4,6.5,2.5,1.7,.9,3,2.1,4.1,3.5,.9,1.2,1.3,2.9,1.3,5.1s-.5,3.9-1.4,5.3c-1.1,1.6-2.4,2.8-4,3.8-1.7,1-3.7,1.8-5.9,2.3-2.3,.5-4.5,.8-6.7,.8-7,0-12.3-1.5-15.8-4.4-3.4-2.8-5-7.4-5-13.8v-3.4h-9.5v3.4c0,9.4,2.7,16.4,8,21,5.1,4.4,12.7,6.6,22.3,6.6s6.2-.4,9.3-1.1c3.3-.7,6.2-2,8.9-3.6,2.7-1.7,4.9-4,6.6-6.8,1.7-2.9,2.6-6.3,2.6-10.3s-.8-7.1-2.4-9.6c-1.5-2.4-3.5-4.4-6-6h.1Z" style="fill: #7dd3fc;"/>
</svg>