<?xml version="1.0" encoding="UTF-8"?>
<svg xmlns="http://www.w3.org/2000/svg" viewBox="0 0 512 512">
  <g id="uuid-17b98a49-328e-43c0-ba56-02f77945771d" data-name="Layer 2">
    <rect width="512" height="512" style="fill: #fff; opacity: 0;"/>
  </g>
  <g id="uuid-0080c31f-42f9-4468-a7bd-1a70e925fc80" data-name="bg">
    <g>
      <polygon points="54 283.2 105.1 283.2 105.1 269.2 72.1 269.2 72.1 252.9 100.7 252.9 100.7 238.8 72.1 238.8 72.1 222.6 105.1 222.6 105.1 208.6 54 208.6 54 283.2" style="fill: #d1d5db;"/>
      <polygon points="158.7 226.6 147.1 243.5 135 226.6 115.3 226.6 135.9 255.5 114.7 283.2 132.3 283.2 143.7 266.4 155.6 283.2 175.4 283.2 155 254.6 176.3 226.6 158.7 226.6" style="fill: #d1d5db;"/>
      <path d="M228,227.5c-4.3-1.9-9.3-2.9-14.9-2.9s-7.2,.3-10.5,.8c-3.2,.6-6.1,1.4-8.6,2.5-2.5,1.1-4.4,2.5-5.8,4.2-1.4,1.7-2.1,3.8-2.1,6.3v64.9h16.3v-21.6c.8,.4,1.7,.8,2.6,1.2,2.3,.8,4.5,1.3,6.7,1.5,2.2,.2,3.8,.3,4.9,.3,5.3,0,9.8-1.2,13.5-3.7,3.7-2.5,6.5-5.9,8.6-10.3,2-4.4,3-9.6,3-15.4s-1.2-13.9-3.6-18.3c-2.4-4.5-5.8-7.7-10.1-9.6Zm-4.5,37.1c-1,2.4-2.5,4.2-4.4,5.2-1.9,1-4.4,1.6-7.4,1.6s-2.9-.2-4.6-.6c-1.7-.4-3.3-1-4.7-1.8v-26.6c0-1.1,.8-2,2.3-2.7,1.5-.7,4.1-1.1,7.7-1.1s5.8,.7,7.7,2c1.8,1.3,3.1,3.1,3.9,5.5,.7,2.4,1.1,5.3,1.1,8.7s-.5,7.4-1.5,9.8Z" style="fill: #d1d5db;"/>
      <path d="M278.6,224.9c-3.5,0-7,.5-10.5,1.4-3.5,.9-6.5,2-9.2,3.1-2.7,1.2-4.5,2.2-5.6,3.1v50.7h16.7v-43.7c1.3-.2,2.8-.4,4.7-.4,1.9,0,3.8,0,5.9,0,2.1,0,4.1,.1,6,.3,1.9,.2,3.5,.4,4.8,.7v-12.2c-1-.8-2.6-1.5-4.6-2-2-.5-4.8-.8-8.3-.8Z" style="fill: #d1d5db;"/>
      <path d="M348,240.5c-1.8-5.1-4.6-9.1-8.4-11.7s-8.9-4-15.2-4c-9.1,0-16.1,2.7-21,8.1-4.9,5.4-7.3,13-7.3,22.9s1.2,11.2,3.6,15.6c2.4,4.4,5.8,7.7,10.2,10.1,4.4,2.3,9.4,3.5,15,3.5s8.3-.4,11.6-1.1c3.3-.7,6.3-1.6,9-2.7v-14.3c-1.3,.5-2.8,1.1-4.6,1.8-1.8,.7-3.7,1.2-5.8,1.7-2,.5-4.1,.7-6.2,.7-5.7,0-9.8-1.5-12.4-4.4-1.7-1.9-2.8-4.4-3.4-7.4h37.3c0-7.4-.8-13.6-2.6-18.8Zm-29.9-1.5c1.7-1,3.6-1.6,5.6-1.6,3.7,0,6.4,1.2,8.1,3.7,1.1,1.7,1.9,4.2,2.2,7.5h-20.9c.2-1.7,.6-3.2,1.1-4.4,.9-2.4,2.2-4.2,3.9-5.2Z" style="fill: #d1d5db;"/>
      <path d="M398.2,253.5c-1.8-1.2-3.6-2-5.6-2.7-2-.6-3.9-1.2-5.8-1.6-1.7-.4-3.3-.9-4.7-1.4-1.4-.5-2.6-1.1-3.4-2-.9-.8-1.3-1.9-1.3-3.4s.6-2.7,1.9-3.6c1.3-.9,3.4-1.3,6.3-1.3s6.1,.6,8.6,1.8c2.5,1.2,5,2.6,7.5,4v-13.1c-2.2-1.3-4.7-2.4-7.4-3.3-2.7-.9-6.4-1.4-11-1.5-2.5,0-5.1,.2-7.8,.8-2.7,.6-5.2,1.7-7.5,3.2-2.3,1.5-4.2,3.4-5.6,5.9-1.4,2.4-2.1,5.5-2.1,9.1s.4,5.2,1.3,7.2c.9,2,2,3.6,3.4,5,1.4,1.3,3,2.4,4.8,3.2,1.8,.8,3.6,1.4,5.4,1.7,2,.4,3.9,.9,5.7,1.5,1.8,.5,3.2,1.2,4.4,2,1.1,.8,1.7,1.8,1.7,3.1s-.5,2.5-1.6,3.4c-1.1,.9-3,1.4-5.6,1.4s-5.1-.3-7.4-1c-2.3-.7-4.5-1.5-6.4-2.6-1.9-1.1-3.7-2.1-5.3-3.2v14.6c2.5,1,5.2,2,8.1,2.9,2.9,.9,6.3,1.3,10.3,1.3s8.5-.6,12.2-1.7c3.8-1.2,6.8-3.1,9.2-5.8,2.4-2.7,3.6-6.4,3.7-10.9,0-3.4-.5-6.1-1.6-8.1-1.1-2-2.5-3.7-4.2-4.8Z" style="fill: #d1d5db;"/>
      <path d="M456.4,258.3c-1.1-2-2.5-3.7-4.2-4.8-1.8-1.2-3.6-2-5.6-2.7-2-.6-3.9-1.2-5.8-1.6-1.7-.4-3.3-.9-4.7-1.4-1.4-.5-2.6-1.1-3.4-2-.9-.8-1.3-1.9-1.3-3.4s.6-2.7,1.9-3.6c1.3-.9,3.4-1.3,6.3-1.3s6.1,.6,8.6,1.8c2.5,1.2,5,2.6,7.5,4v-13.1c-2.2-1.3-4.7-2.4-7.4-3.3-2.7-.9-6.4-1.4-11-1.5-2.5,0-5.1,.2-7.8,.8-2.7,.6-5.2,1.7-7.5,3.2-2.3,1.5-4.2,3.4-5.6,5.9-1.4,2.4-2.1,5.5-2.1,9.1s.4,5.2,1.3,7.2c.9,2,2,3.6,3.4,5,1.4,1.3,3,2.4,4.8,3.2s3.6,1.4,5.4,1.7c2,.4,3.9,.9,5.7,1.5,1.8,.5,3.2,1.2,4.4,2,1.1,.8,1.7,1.8,1.7,3.1s-.5,2.5-1.6,3.4c-1.1,.9-3,1.4-5.6,1.4s-5.1-.3-7.4-1-4.5-1.5-6.4-2.6c-1.9-1.1-3.7-2.1-5.3-3.2v14.6c2.5,1,5.2,2,8.1,2.9,2.9,.9,6.3,1.3,10.3,1.3s8.5-.6,12.2-1.7,6.8-3.1,9.2-5.8c2.4-2.7,3.6-6.4,3.7-10.9,0-3.4-.5-6.1-1.6-8.1Z" style="fill: #d1d5db;"/>
    </g>
  </g>
</svg>