<?xml version="1.0" encoding="UTF-8"?>
<svg id="uuid-12b49ec7-4129-48e4-b9a2-6f1daaf45657" data-name="Layer 1" xmlns="http://www.w3.org/2000/svg" viewBox="0 0 512 512">
  <rect width="512" height="512" style="fill: #7dd3fc; opacity: 0;"/>
  <g>
    <path d="M265.3,454.9l-10.6-3.5s1.4-54.2-18.4-57.7c-13.1-15.2,2.1-635,48.5-2.1,0,0-16.3,8.1-18.8,21.6-3.2,13.4-1.1,41.8-1.1,41.8h.4Z" style="fill: #7dd3fc; fill-rule: evenodd;"/>
    <path d="M265.3,454.9l-10.6-3.5s1.4-54.2-18.4-57.7c-13.1-15.2,2.1-635,48.5-2.1,0,0-16.3,8.1-18.8,21.6-3.2,13.4-1.1,41.8-1.1,41.8h.4Z" style="fill: #7dd3fc; fill-rule: evenodd;"/>
    <path d="M270.9,402.5s92.4-60.9,70.8-187.6c-20.9-92.4-70.1-122.5-75.7-133.8-6-8.5-11.7-22.7-11.7-22.7l3.9,256.3s-8.1,78.6,12.4,88.1" style="fill: #7dd3fc; fill-rule: evenodd;"/>
    <path d="M270.9,402.5s92.4-60.9,70.8-187.6c-20.9-92.4-70.1-122.5-75.7-133.8-6-8.5-11.7-22.7-11.7-22.7l3.9,256.3s-8.1,78.6,12.4,88.1" style="fill: #7dd3fc; fill-rule: evenodd;"/>
    <path d="M249,405.7s-87.1-59.1-81.8-163.9c5-104.4,66.2-156.1,78.2-165.3,7.8-8.5,8.1-11.3,8.5-19.5,5.3,11.7,4.6,173.4,5.3,192.9,2.5,73.6-4.2,141.9-10.3,156.1h0v-.4Z" style="fill: #7dd3fc; fill-rule: evenodd;"/>
    <path d="M249,405.7s-87.1-59.1-81.8-163.9c5-104.4,66.2-156.1,78.2-165.3,7.8-8.5,8.1-11.3,8.5-19.5,5.3,11.7,4.6,173.4,5.3,192.9,2.5,73.6-4.2,141.9-10.3,156.1h0v-.4Z" style="fill: #7dd3fc; fill-rule: evenodd;"/>
  </g>
</svg>