<?xml version="1.0" encoding="utf-8"?>
<!-- Generator: Adobe Illustrator 27.0.0, SVG Export Plug-In . SVG Version: 6.00 Build 0)  -->
<svg version="1.1" id="uuid-526ffcfd-5293-4b4e-aefb-3ac0a3f260d2"
	 xmlns="http://www.w3.org/2000/svg" xmlns:xlink="http://www.w3.org/1999/xlink" x="0px" y="0px" viewBox="0 0 961 661.3"
	 style="enable-background:new 0 0 961 661.3;" xml:space="preserve">
<style type="text/css">
	.st0{fill:#1E283B;}
	.st1{fill:#29A3DC;}
</style>
<path class="st0" d="M749.3,420.6c-115.9,0-209.8-93.9-209.8-209.8S633.4,1,749.3,1s209.8,93.9,209.8,209.8l1,30
	c0,231.7-187.9,419.6-419.6,419.6V540.5c80.1,0,155.3-31.2,211.9-87.8c10.9-10.9,20.9-22.5,29.8-34.6c-10.7,1.7-21.7,2.6-32.9,2.6
	l0,0V420.6z"/>
<path class="st1" d="M209.8,420.6C93.9,420.6,0,326.7,0,210.8S93.9,1,209.8,1s209.8,93.9,209.8,209.8l1,30
	c0,231.7-187.9,419.6-419.6,419.6V540.5c80.1,0,155.3-31.2,211.9-87.8c10.9-10.9,20.9-22.5,29.8-34.6c-10.7,1.7-21.7,2.6-32.9,2.6
	l0,0L209.8,420.6z"/>
</svg>
